<svg width="800" height="600" xmlns="http://www.w3.org/2000/svg" version="1.1"><g transform="translate(50,0)"><text x="-50" y="-7" style="font-size: 10px; font-family: Arial, Helvetica;">null</text><g class="y axis" transform="translate(0,0)" style="font-size: 10px; font-family: Arial, Helvetica;"><g class="tick" transform="translate(0,550)" style="opacity: 1;"><line x2="-6" y2="0" style="shape-rendering: crispEdges; fill: none; stroke: rgb(204, 204, 204);"></line><text dy=".32em" x="-9" y="0" style="text-anchor: end;">0</text></g><g class="tick" transform="translate(0,535.8027878162106)" style="opacity: 1;"><line x2="-6" y2="0" style="shape-rendering: crispEdges; fill: none; stroke: rgb(204, 204, 204);"></line><text dy=".32em" x="-9" y="0" style="text-anchor: end;">200</text></g><g class="tick" transform="translate(0,521.6055756324213)" style="opacity: 1;"><line x2="-6" y2="0" style="shape-rendering: crispEdges; fill: none; stroke: rgb(204, 204, 204);"></line><text dy=".32em" x="-9" y="0" style="text-anchor: end;">400</text></g><g class="tick" transform="translate(0,507.4083634486319)" style="opacity: 1;"><line x2="-6" y2="0" style="shape-rendering: crispEdges; fill: none; stroke: rgb(204, 204, 204);"></line><text dy=".32em" x="-9" y="0" style="text-anchor: end;">600</text></g><g class="tick" transform="translate(0,493.2111512648425)" style="opacity: 1;"><line x2="-6" y2="0" style="shape-rendering: crispEdges; fill: none; stroke: rgb(204, 204, 204);"></line><text dy=".32em" x="-9" y="0" style="text-anchor: end;">800</text></g><g class="tick" transform="translate(0,479.0139390810532)" style="opacity: 1;"><line x2="-6" y2="0" style="shape-rendering: crispEdges; fill: none; stroke: rgb(204, 204, 204);"></line><text dy=".32em" x="-9" y="0" style="text-anchor: end;">1,000</text></g><g class="tick" transform="translate(0,464.81672689726383)" style="opacity: 1;"><line x2="-6" y2="0" style="shape-rendering: crispEdges; fill: none; stroke: rgb(204, 204, 204);"></line><text dy=".32em" x="-9" y="0" style="text-anchor: end;">1,200</text></g><g class="tick" transform="translate(0,450.6195147134745)" style="opacity: 1;"><line x2="-6" y2="0" style="shape-rendering: crispEdges; fill: none; stroke: rgb(204, 204, 204);"></line><text dy=".32em" x="-9" y="0" style="text-anchor: end;">1,400</text></g><g class="tick" transform="translate(0,436.42230252968506)" style="opacity: 1;"><line x2="-6" y2="0" style="shape-rendering: crispEdges; fill: none; stroke: rgb(204, 204, 204);"></line><text dy=".32em" x="-9" y="0" style="text-anchor: end;">1,600</text></g><g class="tick" transform="translate(0,422.2250903458957)" style="opacity: 1;"><line x2="-6" y2="0" style="shape-rendering: crispEdges; fill: none; stroke: rgb(204, 204, 204);"></line><text dy=".32em" x="-9" y="0" style="text-anchor: end;">1,800</text></g><g class="tick" transform="translate(0,408.02787816210633)" style="opacity: 1;"><line x2="-6" y2="0" style="shape-rendering: crispEdges; fill: none; stroke: rgb(204, 204, 204);"></line><text dy=".32em" x="-9" y="0" style="text-anchor: end;">2,000</text></g><g class="tick" transform="translate(0,393.830665978317)" style="opacity: 1;"><line x2="-6" y2="0" style="shape-rendering: crispEdges; fill: none; stroke: rgb(204, 204, 204);"></line><text dy=".32em" x="-9" y="0" style="text-anchor: end;">2,200</text></g><g class="tick" transform="translate(0,379.6334537945276)" style="opacity: 1;"><line x2="-6" y2="0" style="shape-rendering: crispEdges; fill: none; stroke: rgb(204, 204, 204);"></line><text dy=".32em" x="-9" y="0" style="text-anchor: end;">2,400</text></g><g class="tick" transform="translate(0,365.43624161073825)" style="opacity: 1;"><line x2="-6" y2="0" style="shape-rendering: crispEdges; fill: none; stroke: rgb(204, 204, 204);"></line><text dy=".32em" x="-9" y="0" style="text-anchor: end;">2,600</text></g><g class="tick" transform="translate(0,351.23902942694895)" style="opacity: 1;"><line x2="-6" y2="0" style="shape-rendering: crispEdges; fill: none; stroke: rgb(204, 204, 204);"></line><text dy=".32em" x="-9" y="0" style="text-anchor: end;">2,800</text></g><g class="tick" transform="translate(0,337.0418172431596)" style="opacity: 1;"><line x2="-6" y2="0" style="shape-rendering: crispEdges; fill: none; stroke: rgb(204, 204, 204);"></line><text dy=".32em" x="-9" y="0" style="text-anchor: end;">3,000</text></g><g class="tick" transform="translate(0,322.84460505937017)" style="opacity: 1;"><line x2="-6" y2="0" style="shape-rendering: crispEdges; fill: none; stroke: rgb(204, 204, 204);"></line><text dy=".32em" x="-9" y="0" style="text-anchor: end;">3,200</text></g><g class="tick" transform="translate(0,308.6473928755808)" style="opacity: 1;"><line x2="-6" y2="0" style="shape-rendering: crispEdges; fill: none; stroke: rgb(204, 204, 204);"></line><text dy=".32em" x="-9" y="0" style="text-anchor: end;">3,400</text></g><g class="tick" transform="translate(0,294.4501806917914)" style="opacity: 1;"><line x2="-6" y2="0" style="shape-rendering: crispEdges; fill: none; stroke: rgb(204, 204, 204);"></line><text dy=".32em" x="-9" y="0" style="text-anchor: end;">3,600</text></g><g class="tick" transform="translate(0,280.252968508002)" style="opacity: 1;"><line x2="-6" y2="0" style="shape-rendering: crispEdges; fill: none; stroke: rgb(204, 204, 204);"></line><text dy=".32em" x="-9" y="0" style="text-anchor: end;">3,800</text></g><g class="tick" transform="translate(0,266.05575632421267)" style="opacity: 1;"><line x2="-6" y2="0" style="shape-rendering: crispEdges; fill: none; stroke: rgb(204, 204, 204);"></line><text dy=".32em" x="-9" y="0" style="text-anchor: end;">4,000</text></g><g class="tick" transform="translate(0,251.85854414042333)" style="opacity: 1;"><line x2="-6" y2="0" style="shape-rendering: crispEdges; fill: none; stroke: rgb(204, 204, 204);"></line><text dy=".32em" x="-9" y="0" style="text-anchor: end;">4,200</text></g><g class="tick" transform="translate(0,237.66133195663397)" style="opacity: 1;"><line x2="-6" y2="0" style="shape-rendering: crispEdges; fill: none; stroke: rgb(204, 204, 204);"></line><text dy=".32em" x="-9" y="0" style="text-anchor: end;">4,400</text></g><g class="tick" transform="translate(0,223.4641197728446)" style="opacity: 1;"><line x2="-6" y2="0" style="shape-rendering: crispEdges; fill: none; stroke: rgb(204, 204, 204);"></line><text dy=".32em" x="-9" y="0" style="text-anchor: end;">4,600</text></g><g class="tick" transform="translate(0,209.26690758905525)" style="opacity: 1;"><line x2="-6" y2="0" style="shape-rendering: crispEdges; fill: none; stroke: rgb(204, 204, 204);"></line><text dy=".32em" x="-9" y="0" style="text-anchor: end;">4,800</text></g><g class="tick" transform="translate(0,195.06969540526586)" style="opacity: 1;"><line x2="-6" y2="0" style="shape-rendering: crispEdges; fill: none; stroke: rgb(204, 204, 204);"></line><text dy=".32em" x="-9" y="0" style="text-anchor: end;">5,000</text></g><g class="tick" transform="translate(0,180.8724832214765)" style="opacity: 1;"><line x2="-6" y2="0" style="shape-rendering: crispEdges; fill: none; stroke: rgb(204, 204, 204);"></line><text dy=".32em" x="-9" y="0" style="text-anchor: end;">5,200</text></g><g class="tick" transform="translate(0,166.67527103768714)" style="opacity: 1;"><line x2="-6" y2="0" style="shape-rendering: crispEdges; fill: none; stroke: rgb(204, 204, 204);"></line><text dy=".32em" x="-9" y="0" style="text-anchor: end;">5,400</text></g><g class="tick" transform="translate(0,152.47805885389778)" style="opacity: 1;"><line x2="-6" y2="0" style="shape-rendering: crispEdges; fill: none; stroke: rgb(204, 204, 204);"></line><text dy=".32em" x="-9" y="0" style="text-anchor: end;">5,600</text></g><g class="tick" transform="translate(0,138.28084667010845)" style="opacity: 1;"><line x2="-6" y2="0" style="shape-rendering: crispEdges; fill: none; stroke: rgb(204, 204, 204);"></line><text dy=".32em" x="-9" y="0" style="text-anchor: end;">5,800</text></g><g class="tick" transform="translate(0,124.08363448631908)" style="opacity: 1;"><line x2="-6" y2="0" style="shape-rendering: crispEdges; fill: none; stroke: rgb(204, 204, 204);"></line><text dy=".32em" x="-9" y="0" style="text-anchor: end;">6,000</text></g><g class="tick" transform="translate(0,109.88642230252967)" style="opacity: 1;"><line x2="-6" y2="0" style="shape-rendering: crispEdges; fill: none; stroke: rgb(204, 204, 204);"></line><text dy=".32em" x="-9" y="0" style="text-anchor: end;">6,200</text></g><g class="tick" transform="translate(0,95.6892101187403)" style="opacity: 1;"><line x2="-6" y2="0" style="shape-rendering: crispEdges; fill: none; stroke: rgb(204, 204, 204);"></line><text dy=".32em" x="-9" y="0" style="text-anchor: end;">6,400</text></g><g class="tick" transform="translate(0,81.49199793495096)" style="opacity: 1;"><line x2="-6" y2="0" style="shape-rendering: crispEdges; fill: none; stroke: rgb(204, 204, 204);"></line><text dy=".32em" x="-9" y="0" style="text-anchor: end;">6,600</text></g><g class="tick" transform="translate(0,67.2947857511616)" style="opacity: 1;"><line x2="-6" y2="0" style="shape-rendering: crispEdges; fill: none; stroke: rgb(204, 204, 204);"></line><text dy=".32em" x="-9" y="0" style="text-anchor: end;">6,800</text></g><g class="tick" transform="translate(0,53.097573567372244)" style="opacity: 1;"><line x2="-6" y2="0" style="shape-rendering: crispEdges; fill: none; stroke: rgb(204, 204, 204);"></line><text dy=".32em" x="-9" y="0" style="text-anchor: end;">7,000</text></g><g class="tick" transform="translate(0,38.90036138358283)" style="opacity: 1;"><line x2="-6" y2="0" style="shape-rendering: crispEdges; fill: none; stroke: rgb(204, 204, 204);"></line><text dy=".32em" x="-9" y="0" style="text-anchor: end;">7,200</text></g><g class="tick" transform="translate(0,24.70314919979348)" style="opacity: 1;"><line x2="-6" y2="0" style="shape-rendering: crispEdges; fill: none; stroke: rgb(204, 204, 204);"></line><text dy=".32em" x="-9" y="0" style="text-anchor: end;">7,400</text></g><g class="tick" transform="translate(0,10.505937016004124)" style="opacity: 1;"><line x2="-6" y2="0" style="shape-rendering: crispEdges; fill: none; stroke: rgb(204, 204, 204);"></line><text dy=".32em" x="-9" y="0" style="text-anchor: end;">7,600</text></g><path class="domain" d="M-6,0H0V550H-6" style="shape-rendering: crispEdges; fill: none; stroke: rgb(204, 204, 204);"></path></g><rect transform="translate(0,0)" class="bar" x="5" width="28" y="401.07124419204956" height="148.92875580795044" style="fill: rgb(191, 105, 105);"></rect><rect transform="translate(0,0)" class="bar" x="36" width="28" y="0" height="550" style="fill: rgb(191, 105, 105);"></rect><rect transform="translate(0,0)" class="bar" x="67" width="28" y="537.0805369127517" height="12.919463087248346" style="fill: rgb(191, 105, 105);"></rect><rect transform="translate(0,0)" class="bar" x="98" width="28" y="530.4078471863706" height="19.592152813629355" style="fill: rgb(191, 105, 105);"></rect><rect transform="translate(0,0)" class="bar" x="129" width="28" y="498.1801755291688" height="51.81982447083118" style="fill: rgb(191, 105, 105);"></rect><rect transform="translate(0,0)" class="bar" x="160" width="28" y="397.23799690242646" height="152.76200309757354" style="fill: rgb(191, 105, 105);"></rect><rect transform="translate(0,0)" class="bar" x="191" width="28" y="307.01471347444505" height="242.98528652555495" style="fill: rgb(191, 105, 105);"></rect><rect transform="translate(0,0)" class="bar" x="222" width="28" y="444.15978316985024" height="105.84021683014976" style="fill: rgb(191, 105, 105);"></rect><rect transform="translate(0,0)" class="bar" x="253" width="28" y="534.8799690242644" height="15.12003097573563" style="fill: rgb(191, 105, 105);"></rect><rect transform="translate(0,0)" class="bar" x="284" width="28" y="535.0929272070211" height="14.907072792978852" style="fill: rgb(191, 105, 105);"></rect><rect transform="translate(0,0)" class="bar" x="315" width="28" y="549.2191533298916" height="0.7808466701084171" style="fill: rgb(191, 105, 105);"></rect><rect transform="translate(0,0)" class="bar" x="346" width="28" y="460.1316468766133" height="89.86835312338673" style="fill: rgb(191, 105, 105);"></rect><rect transform="translate(0,0)" class="bar" x="377" width="28" y="495.34073309241097" height="54.65926690758903" style="fill: rgb(191, 105, 105);"></rect><rect transform="translate(0,0)" class="bar" x="408" width="28" y="370.76019617965926" height="179.23980382034074" style="fill: rgb(191, 105, 105);"></rect><rect transform="translate(0,0)" class="bar" x="439" width="28" y="549.2901393908105" height="0.7098606091894908" style="fill: rgb(191, 105, 105);"></rect><rect transform="translate(0,0)" class="bar" x="470" width="28" y="549.0771812080537" height="0.9228187919462698" style="fill: rgb(191, 105, 105);"></rect><rect transform="translate(0,0)" class="bar" x="501" width="28" y="549.2191533298916" height="0.7808466701084171" style="fill: rgb(191, 105, 105);"></rect><rect transform="translate(0,0)" class="bar" x="532" width="28" y="544.9599896747548" height="5.040010325245248" style="fill: rgb(191, 105, 105);"></rect><rect transform="translate(0,0)" class="bar" x="563" width="28" y="549.6450696954053" height="0.3549303045947454" style="fill: rgb(191, 105, 105);"></rect><rect transform="translate(0,0)" class="bar" x="594" width="28" y="549.4321115126485" height="0.5678884873515244" style="fill: rgb(191, 105, 105);"></rect><rect transform="translate(0,0)" class="bar" x="625" width="28" y="549.9290139390811" height="0.07098606091892634" style="fill: rgb(191, 105, 105);"></rect><rect transform="translate(0,0)" class="bar" x="656" width="28" y="549.9290139390811" height="0.07098606091892634" style="fill: rgb(191, 105, 105);"></rect><rect transform="translate(0,0)" class="bar" x="687" width="28" y="546.8766133195663" height="3.1233866804336685" style="fill: rgb(191, 105, 105);"></rect><rect transform="translate(0,0)" class="bar" x="718" width="28" y="549.8580278781621" height="0.14197212183785268" style="fill: rgb(191, 105, 105);"></rect></g><g class="x axis" transform="translate(50,550)" style="font-size: 10px; font-family: Arial, Helvetica;"><g class="tick" transform="translate(19,0)" style="opacity: 1;"><line y2="6" x2="0" style="shape-rendering: crispEdges; fill: none; stroke: rgb(204, 204, 204);"></line><text dy=".71em" y="9" x="0" style="text-anchor: middle;">DSNY</text></g><g class="tick" transform="translate(50,0)" style="opacity: 1;"><line y2="6" x2="0" style="shape-rendering: crispEdges; fill: none; stroke: rgb(204, 204, 204);"></line><text dy=".71em" y="9" x="0" style="text-anchor: middle;">NYPD</text></g><g class="tick" transform="translate(81,0)" style="opacity: 1;"><line y2="6" x2="0" style="shape-rendering: crispEdges; fill: none; stroke: rgb(204, 204, 204);"></line><text dy=".71em" y="9" x="0" style="text-anchor: middle;">DHS</text></g><g class="tick" transform="translate(112,0)" style="opacity: 1;"><line y2="6" x2="0" style="shape-rendering: crispEdges; fill: none; stroke: rgb(204, 204, 204);"></line><text dy=".71em" y="9" x="0" style="text-anchor: middle;">TLC</text></g><g class="tick" transform="translate(143,0)" style="opacity: 1;"><line y2="6" x2="0" style="shape-rendering: crispEdges; fill: none; stroke: rgb(204, 204, 204);"></line><text dy=".71em" y="9" x="0" style="text-anchor: middle;">DOHMH</text></g><g class="tick" transform="translate(174,0)" style="opacity: 1;"><line y2="6" x2="0" style="shape-rendering: crispEdges; fill: none; stroke: rgb(204, 204, 204);"></line><text dy=".71em" y="9" x="0" style="text-anchor: middle;">DOT</text></g><g class="tick" transform="translate(205,0)" style="opacity: 1;"><line y2="6" x2="0" style="shape-rendering: crispEdges; fill: none; stroke: rgb(204, 204, 204);"></line><text dy=".71em" y="9" x="0" style="text-anchor: middle;">HPD</text></g><g class="tick" transform="translate(236,0)" style="opacity: 1;"><line y2="6" x2="0" style="shape-rendering: crispEdges; fill: none; stroke: rgb(204, 204, 204);"></line><text dy=".71em" y="9" x="0" style="text-anchor: middle;">DPR</text></g><g class="tick" transform="translate(267,0)" style="opacity: 1;"><line y2="6" x2="0" style="shape-rendering: crispEdges; fill: none; stroke: rgb(204, 204, 204);"></line><text dy=".71em" y="9" x="0" style="text-anchor: middle;">HRA</text></g><g class="tick" transform="translate(298,0)" style="opacity: 1;"><line y2="6" x2="0" style="shape-rendering: crispEdges; fill: none; stroke: rgb(204, 204, 204);"></line><text dy=".71em" y="9" x="0" style="text-anchor: middle;">DCA</text></g><g class="tick" transform="translate(329,0)" style="opacity: 1;"><line y2="6" x2="0" style="shape-rendering: crispEdges; fill: none; stroke: rgb(204, 204, 204);"></line><text dy=".71em" y="9" x="0" style="text-anchor: middle;">3/1/01</text></g><g class="tick" transform="translate(360,0)" style="opacity: 1;"><line y2="6" x2="0" style="shape-rendering: crispEdges; fill: none; stroke: rgb(204, 204, 204);"></line><text dy=".71em" y="9" x="0" style="text-anchor: middle;">DOF</text></g><g class="tick" transform="translate(391,0)" style="opacity: 1;"><line y2="6" x2="0" style="shape-rendering: crispEdges; fill: none; stroke: rgb(204, 204, 204);"></line><text dy=".71em" y="9" x="0" style="text-anchor: middle;">DOB</text></g><g class="tick" transform="translate(422,0)" style="opacity: 1;"><line y2="6" x2="0" style="shape-rendering: crispEdges; fill: none; stroke: rgb(204, 204, 204);"></line><text dy=".71em" y="9" x="0" style="text-anchor: middle;">DEP</text></g><g class="tick" transform="translate(453,0)" style="opacity: 1;"><line y2="6" x2="0" style="shape-rendering: crispEdges; fill: none; stroke: rgb(204, 204, 204);"></line><text dy=".71em" y="9" x="0" style="text-anchor: middle;">EDC</text></g><g class="tick" transform="translate(484,0)" style="opacity: 1;"><line y2="6" x2="0" style="shape-rendering: crispEdges; fill: none; stroke: rgb(204, 204, 204);"></line><text dy=".71em" y="9" x="0" style="text-anchor: middle;">DOITT</text></g><g class="tick" transform="translate(515,0)" style="opacity: 1;"><line y2="6" x2="0" style="shape-rendering: crispEdges; fill: none; stroke: rgb(204, 204, 204);"></line><text dy=".71em" y="9" x="0" style="text-anchor: middle;">FDNY</text></g><g class="tick" transform="translate(546,0)" style="opacity: 1;"><line y2="6" x2="0" style="shape-rendering: crispEdges; fill: none; stroke: rgb(204, 204, 204);"></line><text dy=".71em" y="9" x="0" style="text-anchor: middle;">DFTA</text></g><g class="tick" transform="translate(577,0)" style="opacity: 1;"><line y2="6" x2="0" style="shape-rendering: crispEdges; fill: none; stroke: rgb(204, 204, 204);"></line><text dy=".71em" y="9" x="0" style="text-anchor: middle;">ACS</text></g><g class="tick" transform="translate(608,0)" style="opacity: 1;"><line y2="6" x2="0" style="shape-rendering: crispEdges; fill: none; stroke: rgb(204, 204, 204);"></line><text dy=".71em" y="9" x="0" style="text-anchor: middle;">CHALL</text></g><g class="tick" transform="translate(639,0)" style="opacity: 1;"><line y2="6" x2="0" style="shape-rendering: crispEdges; fill: none; stroke: rgb(204, 204, 204);"></line><text dy=".71em" y="9" x="0" style="text-anchor: middle;">DCLA</text></g><g class="tick" transform="translate(670,0)" style="opacity: 1;"><line y2="6" x2="0" style="shape-rendering: crispEdges; fill: none; stroke: rgb(204, 204, 204);"></line><text dy=".71em" y="9" x="0" style="text-anchor: middle;">NYCEM</text></g><g class="tick" transform="translate(701,0)" style="opacity: 1;"><line y2="6" x2="0" style="shape-rendering: crispEdges; fill: none; stroke: rgb(204, 204, 204);"></line><text dy=".71em" y="9" x="0" style="text-anchor: middle;">DOE</text></g><g class="tick" transform="translate(732,0)" style="opacity: 1;"><line y2="6" x2="0" style="shape-rendering: crispEdges; fill: none; stroke: rgb(204, 204, 204);"></line><text dy=".71em" y="9" x="0" style="text-anchor: middle;">DCP</text></g><path class="domain" d="M0,6V0H750V6" style="shape-rendering: crispEdges; fill: none; stroke: rgb(204, 204, 204);"></path></g></svg>