<svg width="600" height="600" xmlns="http://www.w3.org/2000/svg" version="1.1"><g transform="translate(300,300)"><g display="none"><path d="M0,173.20508075688772A173.20508075688772,173.20508075688772 0 1,1 0,-173.20508075688772A173.20508075688772,173.20508075688772 0 1,1 0,173.20508075688772Z" style="stroke: rgb(255, 255, 255); fill: rgb(191, 105, 126); fill-rule: evenodd;"></path><text transform="rotate(90)" x="0" dx="6" dy=".35em" style="font-size: 11px; font-family: Arial, Helvetica;"></text><title>undefined: none</title></g><g><path d="M1.4998798865218464e-14,-244.94897427831782A244.94897427831782,244.94897427831782 0 0,1 244.89633743732335,5.0777859136297305L173.1678608896803,3.590536852941111A173.20508075688772,173.20508075688772 0 0,0 1.0605752387249068e-14,-173.20508075688772Z" style="stroke: rgb(255, 255, 255); fill: rgb(191, 105, 126); fill-rule: evenodd;"></path><text transform="rotate(-44.40608744250032)" x="173.20508075688772" dx="6" dy=".35em" style="font-size: 11px; font-family: Arial, Helvetica;">QUEENS</text><title>QUEENS: none</title></g><g><path d="M1.8369701987210297e-14,-300A300,300 0 0,1 182.24111156877498,-238.3027008956829L148.79924450037302,-194.57334050716767A244.94897427831782,244.94897427831782 0 0,0 1.4998798865218464e-14,-244.94897427831782Z" style="stroke: rgb(255, 255, 255); fill: rgb(191, 105, 126); fill-rule: evenodd;"></path><text transform="rotate(-71.29659086023817)" x="244.94897427831782" dx="6" dy=".35em" style="font-size: 11px; font-family: Arial, Helvetica;">Open</text><title>Open: 2,417</title></g><g><path d="M182.24111156877498,-238.3027008956829A300,300 0 0,1 296.7995109910988,-43.70412195027616L242.33578594525324,-35.68426614484887A244.94897427831782,244.94897427831782 0 0,0 148.79924450037302,-194.57334050716767Z" style="stroke: rgb(255, 255, 255); fill: rgb(191, 169, 105); fill-rule: evenodd;"></path><text transform="rotate(-30.48493186019518)" x="244.94897427831782" dx="6" dy=".35em" style="font-size: 11px; font-family: Arial, Helvetica;">Closed</text><title>Closed: 2,857</title></g><g><path d="M296.7995109910988,-43.70412195027616A300,300 0 0,1 298.93354716931765,-25.273194827115283L244.078219188345,-20.63547716545992A244.94897427831782,244.94897427831782 0 0,0 242.33578594525324,-35.68426614484887Z" style="stroke: rgb(255, 255, 255); fill: rgb(148, 191, 105); fill-rule: evenodd;"></path><text transform="rotate(-6.604617170371013)" x="244.94897427831782" dx="6" dy=".35em" style="font-size: 11px; font-family: Arial, Helvetica;">Pending</text><title>Pending: 229</title></g><g><path d="M298.93354716931765,-25.273194827115283A300,300 0 0,1 299.9695468786262,4.274452647029273L244.92410940883752,3.4900759716368697A244.94897427831782,244.94897427831782 0 0,0 244.078219188345,-20.63547716545992Z" style="stroke: rgb(255, 255, 255); fill: rgb(105, 191, 126); fill-rule: evenodd;"></path><text transform="rotate(-2.008082197669922)" x="244.94897427831782" dx="6" dy=".35em" style="font-size: 11px; font-family: Arial, Helvetica;">Assigned</text><title>Assigned: 365</title></g><g><path d="M299.9695468786262,4.274452647029273A300,300 0 0,1 299.93553329894576,6.218992255742466L244.89633743732335,5.0777859136297305A244.94897427831782,244.94897427831782 0 0,0 244.92410940883752,3.4900759716368697Z" style="stroke: rgb(255, 255, 255); fill: rgb(105, 191, 191); fill-rule: evenodd;"></path><text transform="rotate(1.0021065302437646)" x="244.94897427831782" dx="6" dy=".35em" style="font-size: 11px; font-family: Arial, Helvetica;">Started</text><title>Started: 24</title></g><g><path d="M244.89633743732335,5.0777859136297305A244.94897427831782,244.94897427831782 0 0,1 90.53088722879909,227.6052689582701L64.01500426631844,160.94122911418077A173.20508075688772,173.20508075688772 0 0,0 173.1678608896803,3.590536852941111Z" style="stroke: rgb(255, 255, 255); fill: rgb(191, 169, 105); fill-rule: evenodd;"></path><text transform="rotate(34.74872103520916)" x="173.20508075688772" dx="6" dy=".35em" style="font-size: 11px; font-family: Arial, Helvetica;">BRONX</text><title>BRONX: none</title></g><g><path d="M299.93553329894576,6.218992255742466A300,300 0 0,1 261.71736723176315,146.64248937219537L213.6913355141407,119.73309119112793A244.94897427831782,244.94897427831782 0 0,0 244.89633743732335,5.0777859136297305Z" style="stroke: rgb(255, 255, 255); fill: rgb(191, 169, 105); fill-rule: evenodd;"></path><text transform="rotate(15.22505481277676)" x="244.94897427831782" dx="6" dy=".35em" style="font-size: 11px; font-family: Arial, Helvetica;">Closed</text><title>Closed: 1,814</title></g><g><path d="M261.71736723176315,146.64248937219537A300,300 0 0,1 256.74365255002266,155.1860073436817L209.63031448198956,126.7088444039411A244.94897427831782,244.94897427831782 0 0,0 213.6913355141407,119.73309119112793Z" style="stroke: rgb(255, 255, 255); fill: rgb(148, 191, 105); fill-rule: evenodd;"></path><text transform="rotate(30.20635398306178)" x="244.94897427831782" dx="6" dy=".35em" style="font-size: 11px; font-family: Arial, Helvetica;">Pending</text><title>Pending: 122</title></g><g><path d="M256.74365255002266,155.1860073436817A300,300 0 0,1 246.56716047022695,170.89363761606035L201.32124349299826,139.53407081581508A244.94897427831782,244.94897427831782 0 0,0 209.63031448198956,126.7088444039411Z" style="stroke: rgb(255, 255, 255); fill: rgb(105, 191, 126); fill-rule: evenodd;"></path><text transform="rotate(32.93796483384205)" x="244.94897427831782" dx="6" dy=".35em" style="font-size: 11px; font-family: Arial, Helvetica;">Assigned</text><title>Assigned: 231</title></g><g><path d="M246.56716047022695,170.89363761606035A300,300 0 0,1 111.93060676970167,278.3370964642809L91.3909577286272,227.26128760843602A244.94897427831782,244.94897427831782 0 0,0 201.32124349299826,139.53407081581508Z" style="stroke: rgb(255, 255, 255); fill: rgb(191, 105, 126); fill-rule: evenodd;"></path><text transform="rotate(51.40922574265939)" x="244.94897427831782" dx="6" dy=".35em" style="font-size: 11px; font-family: Arial, Helvetica;">Open</text><title>Open: 2,156</title></g><g><path d="M111.93060676970167,278.3370964642809A300,300 0 0,1 110.87723983600199,278.7583858583445L90.53088722879909,227.6052689582701A244.94897427831782,244.94897427831782 0 0,0 91.3909577286272,227.26128760843602Z" style="stroke: rgb(255, 255, 255); fill: rgb(105, 191, 191); fill-rule: evenodd;"></path><text transform="rotate(68.20128111431151)" x="244.94897427831782" dx="6" dy=".35em" style="font-size: 11px; font-family: Arial, Helvetica;">Started</text><title>Started: 14</title></g><g><path d="M90.53088722879909,227.6052689582701A244.94897427831782,244.94897427831782 0 0,1 -165.99227871210408,180.12929636226076L-117.37426590193618,127.37064694811589A173.20508075688772,173.20508075688772 0 0,0 64.01500426631844,160.94122911418077Z" style="stroke: rgb(255, 255, 255); fill: rgb(191, 169, 105); fill-rule: evenodd;"></path><text transform="rotate(100.48536176432656)" x="173.20508075688772" dx="6" dy=".35em" style="font-size: 11px; font-family: Arial, Helvetica;">MANHATTAN</text><title>MANHATTAN: none</title></g><g><path d="M110.87723983600199,278.7583858583445A300,300 0 0,1 -39.3101670998914,297.4133668189421L-32.096617032758914,242.83699712986987A244.94897427831782,244.94897427831782 0 0,0 90.53088722879909,227.6052689582701Z" style="stroke: rgb(255, 255, 255); fill: rgb(191, 169, 105); fill-rule: evenodd;"></path><text transform="rotate(82.91947895619278)" x="244.94897427831782" dx="6" dy=".35em" style="font-size: 11px; font-family: Arial, Helvetica;">Closed</text><title>Closed: 1,888</title></g><g><path d="M-39.3101670998914,297.4133668189421A300,300 0 0,1 -62.146264499833826,293.4924902083811L-50.74221248154444,239.63561478310731A244.94897427831782,244.94897427831782 0 0,0 -32.096617032758914,242.83699712986987Z" style="stroke: rgb(255, 255, 255); fill: rgb(105, 191, 126); fill-rule: evenodd;"></path><text transform="rotate(99.74248742530415)" x="244.94897427831782" dx="6" dy=".35em" style="font-size: 11px; font-family: Arial, Helvetica;">Assigned</text><title>Assigned: 286</title></g><g><path d="M-62.146264499833826,293.4924902083811A300,300 0 0,1 -197.63169984592557,225.70270538035203L-161.36560720713283,184.2854872491953A244.94897427831782,244.94897427831782 0 0,0 -50.74221248154444,239.63561478310731Z" style="stroke: rgb(255, 255, 255); fill: rgb(191, 105, 126); fill-rule: evenodd;"></path><text transform="rotate(116.58097244314519)" x="244.94897427831782" dx="6" dy=".35em" style="font-size: 11px; font-family: Arial, Helvetica;">Open</text><title>Open: 1,890</title></g><g><path d="M-197.63169984592557,225.70270538035203A300,300 0 0,1 -197.93634989174288,225.43558146737513L-161.61435292792214,184.06738148756565A244.94897427831782,244.94897427831782 0 0,0 -161.36560720713283,184.2854872491953Z" style="stroke: rgb(255, 255, 255); fill: rgb(105, 191, 191); fill-rule: evenodd;"></path><text transform="rotate(131.24500236447273)" x="244.94897427831782" dx="6" dy=".35em" style="font-size: 11px; font-family: Arial, Helvetica;">Started</text><title>Started: 5</title></g><g><path d="M-197.93634989174288,225.43558146737513A300,300 0 0,1 -203.29819204325273,220.61243190705449L-165.99227871210408,180.12929636226076A244.94897427831782,244.94897427831782 0 0,0 -161.61435292792214,184.06738148756565Z" style="stroke: rgb(255, 255, 255); fill: rgb(148, 191, 105); fill-rule: evenodd;"></path><text transform="rotate(131.9724001547655)" x="244.94897427831782" dx="6" dy=".35em" style="font-size: 11px; font-family: Arial, Helvetica;">Pending</text><title>Pending: 89</title></g><g><path d="M-165.99227871210408,180.12929636226076A244.94897427831782,244.94897427831782 0 0,1 -126.60973710398004,-209.69018687211155L-89.52660367047031,-148.27335308554444A173.20508075688772,173.20508075688772 0 0,0 -117.37426590193618,127.37064694811589Z" style="stroke: rgb(255, 255, 255); fill: rgb(191, 169, 105); fill-rule: evenodd;"></path><text transform="rotate(185.76888353897075)" x="173.20508075688772" dx="6" dy=".35em" style="font-size: 11px; font-family: Arial, Helvetica;">BROOKLYN</text><title>BROOKLYN: none</title></g><g><path d="M-203.29819204325273,220.61243190705449A300,300 0 0,1 -299.88780920479445,-8.203772933767738L-244.85737087762092,-6.698352551128779A244.94897427831782,244.94897427831782 0 0,0 -165.99227871210408,180.12929636226076Z" style="stroke: rgb(255, 255, 255); fill: rgb(191, 169, 105); fill-rule: evenodd;"></path><text transform="rotate(157.11405356605474)" x="244.94897427831782" dx="6" dy=".35em" style="font-size: 11px; font-family: Arial, Helvetica;">Closed</text><title>Closed: 3,160</title></g><g><path d="M-299.88780920479445,-8.203772933767738A300,300 0 0,1 -295.58042406425193,-51.305096335520325L-241.34040563762903,-41.89043574211995A244.94897427831782,244.94897427831782 0 0,0 -244.85737087762092,-6.698352551128779Z" style="stroke: rgb(255, 255, 255); fill: rgb(105, 191, 126); fill-rule: evenodd;"></path><text transform="rotate(185.7069773440523)" x="244.94897427831782" dx="6" dy=".35em" style="font-size: 11px; font-family: Arial, Helvetica;">Assigned</text><title>Assigned: 535</title></g><g><path d="M-295.58042406425193,-51.305096335520325A300,300 0 0,1 -176.0010590604366,-242.94778700289635L-143.70426296250528,-198.36603743182232A244.94897427831782,244.94897427831782 0 0,0 -241.34040563762903,-41.89043574211995Z" style="stroke: rgb(255, 255, 255); fill: rgb(191, 105, 126); fill-rule: evenodd;"></path><text transform="rotate(211.96294226387514)" x="244.94897427831782" dx="6" dy=".35em" style="font-size: 11px; font-family: Arial, Helvetica;">Open</text><title>Open: 2,858</title></g><g><path d="M-176.0010590604366,-242.94778700289635A300,300 0 0,1 -156.0347029933339,-256.2287483124836L-127.40180150013036,-209.20989693253375A244.94897427831782,244.94897427831782 0 0,0 -143.70426296250528,-198.36603743182232Z" style="stroke: rgb(255, 255, 255); fill: rgb(148, 191, 105); fill-rule: evenodd;"></path><text transform="rotate(236.36945961050682)" x="244.94897427831782" dx="6" dy=".35em" style="font-size: 11px; font-family: Arial, Helvetica;">Pending</text><title>Pending: 296</title></g><g><path d="M-156.0347029933339,-256.2287483124836A300,300 0 0,1 -155.06462618633716,-256.8169809527624L-126.60973710398022,-209.69018687211144A244.94897427831782,244.94897427831782 0 0,0 -127.40180150013036,-209.20989693253375Z" style="stroke: rgb(255, 255, 255); fill: rgb(105, 191, 191); fill-rule: evenodd;"></path><text transform="rotate(238.7683246636)" x="244.94897427831782" dx="6" dy=".35em" style="font-size: 11px; font-family: Arial, Helvetica;">Started</text><title>Started: 14</title></g><g><path d="M-126.60973710398004,-209.69018687211155A244.94897427831782,244.94897427831782 0 0,1 -72.78985035630404,-233.88381236226434L-51.470196788496615,-165.38082973111918A173.20508075688772,173.20508075688772 0 0,0 -89.52660367047031,-148.27335308554444Z" style="stroke: rgb(255, 255, 255); fill: rgb(191, 105, 126); fill-rule: evenodd;"></path><text transform="rotate(245.79467778685353)" x="173.20508075688772" dx="6" dy=".35em" style="font-size: 11px; font-family: Arial, Helvetica;">Unspecified</text><title>Unspecified: none</title></g><g><path d="M-155.0646261863369,-256.8169809527625A300,300 0 0,1 -136.44438595522962,-267.17584011527003L-111.40637461922803,-218.14815996061077A244.94897427831782,244.94897427831782 0 0,0 -126.60973710398004,-209.69018687211155Z" style="stroke: rgb(255, 255, 255); fill: rgb(191, 105, 126); fill-rule: evenodd;"></path><text transform="rotate(240.91182666265425)" x="244.94897427831782" dx="6" dy=".35em" style="font-size: 11px; font-family: Arial, Helvetica;">Open</text><title>Open: 263</title></g><g><path d="M-136.44438595522962,-267.17584011527003A300,300 0 0,1 -98.92116611376147,-283.22182630350653L-80.76879391326987,-231.24965282091938A244.94897427831782,244.94897427831782 0 0,0 -111.40637461922803,-218.14815996061077Z" style="stroke: rgb(255, 255, 255); fill: rgb(191, 169, 105); fill-rule: evenodd;"></path><text transform="rotate(246.84708310046858)" x="244.94897427831782" dx="6" dy=".35em" style="font-size: 11px; font-family: Arial, Helvetica;">Closed</text><title>Closed: 504</title></g><g><path d="M-98.92116611376147,-283.22182630350653A300,300 0 0,1 -92.54709289645294,-285.36824559928755L-75.56438492475448,-233.0021968371619A244.94897427831782,244.94897427831782 0 0,0 -80.76879391326987,-231.24965282091938Z" style="stroke: rgb(255, 255, 255); fill: rgb(105, 191, 126); fill-rule: evenodd;"></path><text transform="rotate(251.38945015261592)" x="244.94897427831782" dx="6" dy=".35em" style="font-size: 11px; font-family: Arial, Helvetica;">Assigned</text><title>Assigned: 83</title></g><g><path d="M-92.54709289645294,-285.36824559928755A300,300 0 0,1 -89.61312501324139,-286.30313974066223L-73.16881017956048,-233.7655347071237A244.94897427831782,244.94897427831782 0 0,0 -75.56438492475448,-233.0021968371619Z" style="stroke: rgb(255, 255, 255); fill: rgb(105, 126, 191); fill-rule: evenodd;"></path><text transform="rotate(252.32578135075872)" x="244.94897427831782" dx="6" dy=".35em" style="font-size: 11px; font-family: Arial, Helvetica;">Email Sent</text><title>Email Sent: 38</title></g><g><path d="M-89.61312501324139,-286.30313974066223A300,300 0 0,1 -89.2263670576285,-286.423908606976L-72.85302363115596,-233.8641420735514A244.94897427831782,244.94897427831782 0 0,0 -73.16881017956048,-233.7655347071237Z" style="stroke: rgb(255, 255, 255); fill: rgb(148, 105, 191); fill-rule: evenodd;"></path><text transform="rotate(252.65852714844578)" x="244.94897427831782" dx="6" dy=".35em" style="font-size: 11px; font-family: Arial, Helvetica;">Unassigned</text><title>Unassigned: 5</title></g><g><path d="M-89.2263670576285,-286.423908606976A300,300 0 0,1 -89.1489959132451,-286.4479996921958L-72.78985035630444,-233.8838123622642A244.94897427831782,244.94897427831782 0 0,0 -72.85302363115596,-233.8641420735514Z" style="stroke: rgb(255, 255, 255); fill: rgb(191, 105, 169); fill-rule: evenodd;"></path><text transform="rotate(252.7049567946347)" x="244.94897427831782" dx="6" dy=".35em" style="font-size: 11px; font-family: Arial, Helvetica;">Unable To Respond</text><title>Unable To Respond: 1</title></g><g><path d="M-72.78985035630404,-233.88381236226434A244.94897427831782,244.94897427831782 0 0,1 -4.4996396595655386e-14,-244.94897427831782L-3.1817257161747206e-14,-173.20508075688772A173.20508075688772,173.20508075688772 0 0,0 -51.470196788496615,-165.38082973111918Z" style="stroke: rgb(255, 255, 255); fill: rgb(191, 169, 105); fill-rule: evenodd;"></path><text transform="rotate(261.35634753449983)" x="173.20508075688772" dx="6" dy=".35em" style="font-size: 11px; font-family: Arial, Helvetica;">STATEN ISLAND</text><title>STATEN ISLAND: none</title></g><g><path d="M-89.1489959132446,-286.447999692196A300,300 0 0,1 -50.00718646338981,-295.80277433116777L-40.830696769173045,-241.52195387033422A244.94897427831782,244.94897427831782 0 0,0 -72.78985035630404,-233.88381236226434Z" style="stroke: rgb(255, 255, 255); fill: rgb(191, 169, 105); fill-rule: evenodd;"></path><text transform="rotate(256.5586174283135)" x="244.94897427831782" dx="6" dy=".35em" style="font-size: 11px; font-family: Arial, Helvetica;">Closed</text><title>Closed: 497</title></g><g><path d="M-50.00718646338981,-295.80277433116777A300,300 0 0,1 -9.479519105521758,-299.85019379271387L-7.7399949384975715,-244.82665802226694A244.94897427831782,244.94897427831782 0 0,0 -40.830696769173045,-241.52195387033422Z" style="stroke: rgb(255, 255, 255); fill: rgb(191, 105, 126); fill-rule: evenodd;"></path><text transform="rotate(264.29689179313016)" x="244.94897427831782" dx="6" dy=".35em" style="font-size: 11px; font-family: Arial, Helvetica;">Open</text><title>Open: 503</title></g><g><path d="M-9.479519105521758,-299.85019379271387A300,300 0 0,1 -3.72751498726495,-299.9768418261978L-3.043503242458688,-244.93006570858782A244.94897427831782,244.94897427831782 0 0,0 -7.7399949384975715,-244.82665802226694Z" style="stroke: rgb(255, 255, 255); fill: rgb(105, 191, 126); fill-rule: evenodd;"></path><text transform="rotate(268.73866127853483)" x="244.94897427831782" dx="6" dy=".35em" style="font-size: 11px; font-family: Arial, Helvetica;">Assigned</text><title>Assigned: 71</title></g><g><path d="M-3.72751498726495,-299.9768418261978A300,300 0 0,1 -5.510910596163089e-14,-300L-4.4996396595655386e-14,-244.94897427831782A244.94897427831782,244.94897427831782 0 0,0 -3.043503242458688,-244.93006570858782Z" style="stroke: rgb(255, 255, 255); fill: rgb(148, 191, 105); fill-rule: evenodd;"></path><text transform="rotate(269.64403937921844)" x="244.94897427831782" dx="6" dy=".35em" style="font-size: 11px; font-family: Arial, Helvetica;">Pending</text><title>Pending: 46</title></g></g></svg>